<svg xmlns="http://www.w3.org/2000/svg" xmlns:xlink="http://www.w3.org/1999/xlink" width="1024" height="1024" viewBox="-3 -3 1030 1030"><g id="deeditor_bgCarrier" stroke-width="0">
    <rect id="dee_c_e" x="-3" y="-3" width="1030" height="1030" rx="0" fill="#000000" strokewidth="0"/>
  </g><path fill="#ffffff" d="M497.44 158.279C514.263 157.27 534.705 158.328 551.336 160.254C619.631 168.037 683.952 196.373 735.789 241.513C886.607 370.336 902.487 594.411 773.615 744.626C726.208 799.229 663.089 837.851 592.893 855.211C568.863 860.97 549.591 863.03 525.16 864.898C435.272 867.677 347.78 835.66 280.916 775.52C210.413 712.284 168.121 623.484 163.456 528.892C158.929 434.232 192.473 341.697 256.607 271.927C318.266 203.106 405.118 162.121 497.44 158.279ZM526.125 834.972C612.544 829.124 688.989 793.49 747.66 728.573C804.206 666.008 835.945 578.314 830.318 493.504C825.206 405.271 784.625 322.857 717.805 265.009C665.609 219.447 596.914 191.471 527.659 188.205C520.48 187.867 506.82 187.256 499.81 188.221C413.383 193.29 335.561 227.687 277.561 292.889C218.635 358.15 188.419 444.361 193.71 532.129C199.246 617.988 238.538 698.167 303.002 755.147C364.275 809.575 444.232 838.18 526.125 834.972Z"/><path fill="#ffffff" d="M586.959 370.218C590.481 372.218 593.796 376.285 598.891 378.131C606.463 380.874 612.314 381.153 620.267 381.038C640.869 380.739 654.001 379.94 671.747 391.611C688.782 381.184 702.771 379.601 722.508 380.706C736.786 381.505 745.476 379.613 756.645 370.686C752.809 386.971 749.323 392.283 741.106 406.686C762.672 445.151 742.667 459.218 721.871 490.924C715.236 501.039 707.667 512.09 700.052 521.367C704.21 528.783 709.53 537.117 713.972 544.458L741.561 590.045C746.249 597.791 753.286 608.678 757.324 616.539C744.753 616.929 732.516 616.65 719.948 616.643L709.211 617.049C706.888 613.63 704.493 609.535 702.587 605.847C693.289 587.847 682.555 570.421 673.25 552.454C661.343 573.682 649.89 595.161 638.899 616.878C622.594 616.982 606.757 616.71 590.455 616.56C602.388 594.707 615.439 573.495 627.718 551.839C633.854 541.018 640.081 530.243 646.643 519.674C638.278 507.346 629.79 495.102 621.178 482.945C602.12 455.815 588.878 440.899 599.968 406.553C592.005 395.738 587.893 383.554 586.959 370.218ZM641.751 457.33C655.386 455.379 664.887 442.786 663.021 429.14C661.154 415.494 648.62 405.914 634.963 407.697C621.186 409.494 611.504 422.163 613.387 435.928C615.27 449.694 627.997 459.297 641.751 457.33ZM709.746 457.433C723.473 456.218 733.618 444.108 732.409 430.381C731.201 416.654 719.096 406.503 705.368 407.705C691.631 408.908 681.472 421.022 682.681 434.759C683.891 448.496 696.01 458.649 709.746 457.433ZM673.94 491.415C677.724 484.604 681.001 478.165 684.477 471.183C681.233 463.571 679.051 460.28 670.149 460.531C663.207 464.806 658.774 468.659 663.36 477.171C665.03 480.27 670.201 491.085 673.262 492.189L673.94 491.415Z"/><path fill="#ffffff" d="M636.949 422.218C642.62 421.606 647.719 425.695 648.354 431.363C648.989 437.032 644.922 442.148 639.256 442.807C636.36 443.143 633.456 442.244 631.257 440.329C629.058 438.415 627.768 435.662 627.703 432.747C627.584 427.369 631.601 422.795 636.949 422.218Z"/><path fill="#ffffff" d="M705.824 422.221C709.141 421.574 712.565 422.585 714.999 424.93C717.432 427.275 718.569 430.66 718.045 433.998C717.395 438.135 714.32 441.474 710.251 442.461C706.599 443.347 702.754 442.186 700.202 439.428C697.65 436.669 696.791 432.745 697.959 429.173C699.126 425.601 702.136 422.94 705.824 422.221Z"/><path fill="#ffffff" d="M500.196 421.768C501.047 421.719 501.898 421.689 502.75 421.677C526.914 421.262 552.519 423.97 570.796 441.423C602.658 471.634 595.342 528.988 556.989 550.251C538.973 560.238 514.59 559.046 494.383 559.117L494.35 569.875L494.277 598.972C494.248 604.309 494 611.674 494.34 616.836C482.848 615.862 470.643 617.027 459.091 616.715C456.725 616.652 454.414 616.649 452.057 616.886L452.033 422.504C467.816 422.62 484.336 422.032 500.196 421.768ZM494.554 518.177C510.939 517.781 527.439 520.384 540.693 510.021C546.169 504.694 549.121 497.72 549.169 490.141C549.345 462.377 522.956 462.416 503.109 462.944C500.352 463.02 497.596 463.112 494.841 463.218C493.311 466.562 494.355 511.438 494.554 518.177Z"/><path fill="#ffffff" d="M357.315 418.224C386.96 417.572 413.674 431.915 433.363 453.23C423.503 460.381 411.399 472.391 402.677 481.017C400.642 479.128 398.592 477.279 396.52 475.43C373.282 454.686 334.571 453.837 312.401 477.114C301.386 488.734 295.432 504.249 295.845 520.255C296.216 536.265 303.004 551.455 314.683 562.413C326.498 573.286 342.176 578.971 358.213 578.199C376.031 577.428 390.636 569.647 402.532 556.674C404.814 558.528 407.564 561.143 409.799 563.152C417.625 569.932 425.679 577.507 433.376 584.509C410.092 605.727 395.686 616.712 362.939 618.851C306.726 622.522 256.495 582.756 254.601 525.098C253.692 497.425 261.091 470.857 280.218 450.191C300.844 427.905 327.73 419.662 357.315 418.224Z"/></svg>